<svg width="16" height="16" viewBox="0 0 16 16" fill="none" xmlns="http://www.w3.org/2000/svg">
<path d="M9.26596 6.4265C9.43624 6.62274 9.73338 6.64379 9.92963 6.47351C10.1259 6.30322 10.1469 6.00609 9.97664 5.80984L9.26596 6.4265ZM6.71649 9.57352C6.5462 9.37727 6.24907 9.35622 6.05282 9.5265C5.85657 9.69679 5.83552 9.99392 6.00581 10.1902L6.71649 9.57352ZM8.46168 4.86361C8.46168 4.60378 8.25104 4.39315 7.99122 4.39315C7.73139 4.39315 7.52076 4.60378 7.52076 4.86361H8.46168ZM7.52076 11.1364C7.52075 11.3962 7.73138 11.6069 7.99121 11.6069C8.25103 11.6069 8.46167 11.3962 8.46168 11.1364L7.52076 11.1364ZM13.1663 8.00001C13.1663 10.8581 10.8493 13.1751 7.99122 13.1751V14.116C11.369 14.116 14.1072 11.3778 14.1072 8.00001H13.1663ZM7.99122 13.1751C5.13311 13.1751 2.81616 10.8581 2.81616 8.00001H1.87524C1.87524 11.3778 4.61346 14.116 7.99122 14.116V13.1751ZM2.81616 8.00001C2.81616 5.1419 5.13311 2.82495 7.99122 2.82495V1.88403C4.61346 1.88403 1.87524 4.62225 1.87524 8.00001H2.81616ZM7.99122 2.82495C10.8493 2.82495 13.1663 5.1419 13.1663 8.00001H14.1072C14.1072 4.62225 11.369 1.88403 7.99122 1.88403V2.82495ZM7.99122 7.52955C7.55149 7.52955 7.17467 7.40987 6.92152 7.24111C6.66509 7.07015 6.57984 6.88564 6.57984 6.74545H5.63892C5.63892 7.29813 5.97494 7.7409 6.39959 8.024C6.82754 8.3093 7.39164 8.47047 7.99122 8.47047V7.52955ZM6.57984 6.74545C6.57984 6.60525 6.66509 6.42074 6.92152 6.24979C7.17467 6.08102 7.55149 5.96135 7.99122 5.96135V5.02043C7.39164 5.02043 6.82754 5.1816 6.39959 5.46689C5.97494 5.75 5.63892 6.19277 5.63892 6.74545H6.57984ZM7.99122 5.96135C8.59054 5.96135 9.05273 6.18076 9.26596 6.4265L9.97664 5.80984C9.53911 5.3056 8.78498 5.02043 7.99122 5.02043V5.96135ZM7.99122 8.47047C8.43095 8.47047 8.80777 8.59014 9.06092 8.7589C9.31736 8.92986 9.40261 9.11437 9.40261 9.25456H10.3435C10.3435 8.70188 10.0075 8.25911 9.58285 7.97601C9.1549 7.69071 8.5908 7.52955 7.99122 7.52955V8.47047ZM7.52076 4.86361V5.49089H8.46168V4.86361H7.52076ZM7.52077 10.5091L7.52076 11.1364L8.46168 11.1364L8.46169 10.5091L7.52077 10.5091ZM7.99123 10.0387C7.39191 10.0387 6.92971 9.81925 6.71649 9.57352L6.00581 10.1902C6.44334 10.6944 7.19747 10.9796 7.99123 10.9796L7.99123 10.0387ZM9.40261 9.25456C9.40261 9.39476 9.31736 9.57927 9.06093 9.75023C8.80778 9.91899 8.43096 10.0387 7.99123 10.0387V10.9796C8.59081 10.9796 9.15491 10.8184 9.58285 10.5331C10.0075 10.25 10.3435 9.80724 10.3435 9.25456H9.40261ZM7.52076 5.49089L7.52077 10.5091L8.46169 10.5091L8.46168 5.49089L7.52076 5.49089Z" fill="white"/>
</svg>
