<svg width="21" height="21" viewBox="0 0 21 21" fill="none" xmlns="http://www.w3.org/2000/svg">
<g clip-path="url(#clip0_320_8103)">
<path fill-rule="evenodd" clip-rule="evenodd" d="M10.415 0.5C4.89018 0.5 0.415039 4.97514 0.415039 10.5C0.415039 14.9199 3.28183 18.6645 7.25359 19.9905C7.75083 20.0826 7.93499 19.7757 7.93499 19.5055C7.93499 19.2661 7.92885 18.64 7.92271 17.8051C5.14186 18.4067 4.55255 16.4668 4.55255 16.4668C4.09828 15.3127 3.44144 14.9997 3.44144 14.9997C2.53291 14.3797 3.50896 14.3919 3.50896 14.3919C4.50957 14.4656 5.04365 15.4232 5.04365 15.4232C5.93376 16.9518 7.38251 16.5098 7.95341 16.252C8.04549 15.6074 8.30331 15.1654 8.5857 14.9137C6.36961 14.6682 4.03689 13.8088 4.03689 9.97817C4.03689 8.8855 4.42363 7.9954 5.0682 7.29558C4.96384 7.03775 4.62007 6.02486 5.16028 4.64978C5.16028 4.64978 6.00129 4.37968 7.91043 5.67496C8.70847 5.45396 9.56179 5.34346 10.415 5.33733C11.2622 5.34346 12.1216 5.45396 12.9196 5.67496C14.8288 4.37968 15.6698 4.64978 15.6698 4.64978C16.2161 6.02486 15.8724 7.04389 15.768 7.29558C16.4065 7.9954 16.7932 8.8855 16.7932 9.97817C16.7932 13.8211 14.4543 14.6621 12.226 14.9137C12.582 15.2207 12.9074 15.8346 12.9074 16.7677C12.9074 18.1059 12.8951 19.1802 12.8951 19.5117C12.8951 19.7817 13.0731 20.0887 13.5826 19.9905C17.5544 18.6645 20.415 14.9199 20.415 10.5062C20.415 4.97513 15.9399 0.5 10.415 0.5Z" fill="#A3AAB4"/>
</g>
<defs>
<clipPath id="clip0_320_8103">
<rect width="20" height="20" fill="white" transform="translate(0.415039 0.5)"/>
</clipPath>
</defs>
</svg>
