<svg width="24" height="24" viewBox="0 0 24 24" fill="none" xmlns="http://www.w3.org/2000/svg">
<path d="M12 0C5.37566 0 0 5.37566 0 12C0 18.6243 5.37566 24 12 24C18.6243 24 24 18.6243 24 12C24 5.37566 18.6243 0 12 0ZM17.8413 7.64021C17.7778 8.74074 15.7249 16.9735 15.7249 16.9735C15.7249 16.9735 15.5979 17.4603 15.1746 17.4815C15.0053 17.4815 14.8148 17.4603 14.582 17.2487C14.1164 16.8466 13.0582 16.0847 12.0635 15.4074C11.7672 15.6614 11.1534 16.1693 10.5397 16.8042C9.67196 17.672 9.77778 16.8042 9.77778 16.8042L10.0529 13.9471L10.0952 13.9048C10.0952 13.9048 15.2593 9.31217 15.4074 8.8254C15.4074 8.78307 15.3862 8.7619 15.3228 8.78307C14.9841 8.91005 9.01587 12.6772 8.35979 13.0794C8.31746 13.1005 8.21164 13.0794 8.21164 13.0794L5.31217 12.1481C5.31217 12.1481 4.97355 12 5.07937 11.6825C5.10053 11.619 5.14286 11.5556 5.29101 11.4709C5.92593 11.0265 17.1429 6.98413 17.1429 6.98413C17.1429 6.98413 17.4603 6.87831 17.6508 6.9418C17.7355 6.98413 17.7989 7.00529 17.8413 7.15344C17.8413 7.19577 17.8624 7.30159 17.8624 7.40741C17.8624 7.49206 17.8624 7.55556 17.8624 7.66138L17.8413 7.64021Z" fill="white"/>
</svg>
