<svg width="24" height="24" viewBox="0 0 24 24" fill="none" xmlns="http://www.w3.org/2000/svg">
<path d="M12 0C5.37566 0 0 5.37566 0 12C0 18.6243 5.37566 24 12 24C18.6243 24 24 18.6243 24 12C24 5.37566 18.6243 0 12 0ZM18.6243 9.43915C18.6243 9.56614 18.6243 9.71429 18.6243 9.84127C18.6243 14.0529 15.4286 18.8995 9.56614 18.8995C7.7672 18.8995 6.09524 18.3704 4.67725 17.4603C4.93122 17.4815 5.18518 17.5026 5.43915 17.5026C6.9418 17.5026 8.2963 16.9947 9.39683 16.1481C8 16.127 6.83598 15.1958 6.4127 13.9259C6.60317 13.9683 6.81481 13.9894 7.00529 13.9894C7.30159 13.9894 7.57672 13.9471 7.85185 13.8836C6.39153 13.5873 5.29101 12.2963 5.29101 10.7513C5.29101 10.7513 5.29101 10.7302 5.29101 10.709C5.71429 10.9418 6.20106 11.0899 6.73016 11.1111C5.8836 10.5397 5.31217 9.56614 5.31217 8.46561C5.31217 7.87302 5.46032 7.34392 5.73545 6.85714C7.30159 8.78307 9.65079 10.0529 12.2963 10.1799C12.2328 9.94709 12.2116 9.69312 12.2116 9.46032C12.2116 7.7037 13.6296 6.26455 15.4074 6.26455C16.3175 6.26455 17.1429 6.6455 17.7355 7.28042C18.455 7.13228 19.1323 6.87831 19.7672 6.49735C19.5344 7.2381 19.0265 7.87302 18.3704 8.25397C19.0053 8.16931 19.619 8 20.1905 7.74603C19.7672 8.38095 19.2169 8.95238 18.6032 9.39683L18.6243 9.43915Z" fill="white"/>
</svg>
