<svg width="15" height="16" viewBox="0 0 15 16" fill="none" xmlns="http://www.w3.org/2000/svg">
<path d="M11.3071 2.45368L7.00745 0L2.7 2.45368L4.28394 3.3585L7.00745 1.82534L9.72311 3.3585L11.3071 2.45368ZM2.70078 5.52079L4.28472 4.61597L7.00823 6.14913L9.7239 4.61597L11.3078 5.52079V7.33749L8.59217 8.87065V11.937L7.00823 12.8418L5.42429 11.937V8.87065L2.70078 7.33749V5.52079ZM2.70078 10.4274V8.61067L4.28472 9.57675V11.3935L2.70078 10.4274ZM1.58395 11.0714L4.30745 12.6046V14.4213L0.000784874 11.9605V7.05395L1.58395 8.04281V11.0714ZM3.16005 3.97192L1.57611 4.87674V6.69344L0 5.78862V3.97192L1.57611 3.06711L3.16005 3.97192ZM8.59139 13.2793V15.096L7.00745 16.0008L5.4235 15.096V13.2793L7.00745 14.1841L8.59139 13.2793ZM11.3071 10.4274L9.72311 11.3322V9.57675L11.3071 8.67194V10.4274ZM8.59139 3.97114L7.00745 4.87595L5.4235 3.97114L7.00745 3.06632L8.59139 3.97114ZM12.4168 4.88381L10.8407 3.97899L12.4168 3.07417L14 3.97899V5.79569L12.4161 6.70051V4.88381H12.4168ZM12.4168 7.95091L14 7.04531V11.9597L9.70039 14.4134V12.6423L12.4161 11.1091V7.95012L12.4168 7.95091Z" fill="#BFBFBF"/>
</svg>
