<svg width="17" height="15" viewBox="0 0 17 15" fill="none" xmlns="http://www.w3.org/2000/svg">
<path fill-rule="evenodd" clip-rule="evenodd" d="M6.82042 2.62063L2.41846 10.9125C2.41346 10.9219 2.40823 10.9312 2.40277 10.9403C2.18331 11.3087 2.1165 11.6205 2.18223 11.8543C2.42884 12.7317 3.20429 13.35 4.09781 13.35H12.9177C13.8112 13.35 14.5867 12.7317 14.8333 11.8543C14.899 11.6205 14.8322 11.3087 14.6127 10.9403C14.6073 10.9312 14.6021 10.9219 14.5971 10.9125L10.1951 2.62062C9.41226 1.32642 7.60324 1.32643 6.82042 2.62063ZM5.69586 1.96815C6.98113 -0.18942 10.0344 -0.189415 11.3196 1.96816C11.3251 1.97732 11.3303 1.98661 11.3353 1.99603L15.7381 10.2894C16.0286 10.7818 16.2901 11.4756 16.0848 12.2061C15.6916 13.6048 14.4337 14.65 12.9177 14.65H4.09781C2.58183 14.65 1.32388 13.6048 0.930736 12.2061C0.725378 11.4756 0.986956 10.7818 1.27739 10.2894L5.68018 1.99602C5.68518 1.98661 5.69041 1.97731 5.69586 1.96815ZM8.50775 3.93673C8.86674 3.93673 9.15775 4.22775 9.15775 4.58673V8.23125C9.15775 8.59023 8.86674 8.88125 8.50775 8.88125C8.14877 8.88125 7.85775 8.59023 7.85775 8.23125V4.58673C7.85775 4.22775 8.14877 3.93673 8.50775 3.93673ZM8.50775 10.2826C8.86674 10.2826 9.15775 10.5736 9.15775 10.9326V10.9646C9.15775 11.3236 8.86674 11.6146 8.50775 11.6146C8.14877 11.6146 7.85775 11.3236 7.85775 10.9646V10.9326C7.85775 10.5736 8.14877 10.2826 8.50775 10.2826Z" fill="white"/>
</svg>
