<svg width="24" height="24" viewBox="0 0 24 24" fill="none" xmlns="http://www.w3.org/2000/svg">
<path d="M12 0C5.37566 0 0 5.37566 0 12C0 18.6243 5.37566 24 12 24C18.6243 24 24 18.6243 24 12C24 5.37566 18.6243 0 12 0ZM19.5556 6.24339L18.3492 7.40741C18.3492 7.40741 18.2011 7.61905 18.2222 7.74603V16.254C18.2011 16.381 18.2434 16.5079 18.3492 16.5926L19.5344 17.7566V18.0106H13.6085V17.7566L14.836 16.5714C14.963 16.4444 14.963 16.4233 14.963 16.2328V9.3545L11.5767 17.9683H11.1111L7.15344 9.3545V15.1323C7.11111 15.3651 7.19577 15.619 7.36508 15.7884L8.95238 17.7143V17.9683H4.44444V17.7143L6.03175 15.7884C6.20106 15.619 6.28571 15.3651 6.24339 15.1323V8.44444C6.24339 8.25397 6.20106 8.08466 6.05291 7.95767L4.63492 6.26455V6.01058H9.01587L12.4021 13.4392L15.3862 6.01058H19.5556V6.26455V6.24339Z" fill="white"/>
</svg>
