<svg width="20" height="18" viewBox="0 0 20 18" fill="none" xmlns="http://www.w3.org/2000/svg">
<path d="M13.6072 6.15042C16.7756 6.15042 19.3441 4.95838 19.3441 3.48793C19.3441 2.01748 16.7756 0.825439 13.6072 0.825439C10.4388 0.825439 7.87036 2.01748 7.87036 3.48793C7.87036 4.95838 10.4388 6.15042 13.6072 6.15042Z" stroke="#828282" stroke-opacity="0.45" stroke-miterlimit="10"/>
<path d="M9.46631 8.18773C10.4666 8.58489 12.1803 8.97471 13.5998 8.97471C16.7698 8.97471 19.3366 7.7832 19.3366 6.31222V3.39966" stroke="#828282" stroke-opacity="0.45" stroke-miterlimit="10"/>
<path d="M7.86304 3.40698V6.31954C7.86304 6.65787 8.14988 7.18007 8.39995 7.48162" stroke="#828282" stroke-opacity="0.45" stroke-miterlimit="10"/>
<path d="M11.3713 11.5562C12.0553 11.6886 12.8129 11.7622 13.6072 11.7622C16.7772 11.7622 19.3441 10.5707 19.3441 9.09969V6.18713" stroke="#828282" stroke-opacity="0.45" stroke-miterlimit="10"/>
<path d="M7.86304 6.19446V7.28299" stroke="#828282" stroke-opacity="0.45" stroke-miterlimit="10"/>
<path d="M11.0183 14.2703C11.7979 14.4541 12.6732 14.5571 13.6072 14.5571C16.7772 14.5571 19.3441 13.3656 19.3441 11.8946V8.98206" stroke="#828282" stroke-opacity="0.45" stroke-miterlimit="10"/>
<path d="M9.30457 16.484C10.3563 17.0356 11.8935 17.3813 13.6072 17.3813C16.7772 17.3813 19.3441 16.1898 19.3441 14.7188V11.8063" stroke="#828282" stroke-opacity="0.45" stroke-miterlimit="10"/>
<path d="M6.04629 17.4181C8.93845 17.4181 11.283 15.0736 11.283 12.1814C11.283 9.28926 8.93845 6.9447 6.04629 6.9447C3.15413 6.9447 0.80957 9.28926 0.80957 12.1814C0.80957 15.0736 3.15413 17.4181 6.04629 17.4181Z" stroke="#828282" stroke-opacity="0.45" stroke-miterlimit="10"/>
<path d="M5.73906 11.7019C5.47319 11.9677 5.47319 12.3988 5.73906 12.6646C6.00493 12.9305 6.43599 12.9305 6.70185 12.6646C6.96772 12.3988 6.96772 11.9677 6.70186 11.7019C6.43599 11.436 6.00493 11.436 5.73906 11.7019Z" fill="#828282" fill-opacity="0.45"/>
</svg>
