<svg width="24" height="24" viewBox="0 0 24 24" fill="none" xmlns="http://www.w3.org/2000/svg">
<g clip-path="url(#clip0_2885_30822)">
<g clip-path="url(#clip1_2885_30822)">
<path d="M12 24C18.6274 24 24 18.6274 24 12C24 5.37258 18.6274 0 12 0C5.37258 0 0 5.37258 0 12C0 18.6274 5.37258 24 12 24Z" fill="#2D374B"/>
<g clip-path="url(#clip2_2885_30822)">
<path d="M14.1543 11.4823L15.5116 9.25019L19.173 14.775V15.8355L19.1619 8.53719C19.1545 8.35805 19.0546 8.19682 18.8993 8.10008L12.3088 4.42763C12.1535 4.35597 11.9575 4.35597 11.8058 4.43121C11.7836 4.44196 11.7651 4.45271 11.7467 4.46346L11.7245 4.47779L5.32627 8.06784L5.30038 8.07858C5.2671 8.09292 5.23751 8.11083 5.20423 8.13233C5.08218 8.21832 5.00081 8.34013 4.97493 8.47987C4.97123 8.50136 4.96753 8.52286 4.96753 8.54436L4.97862 14.4884L8.38853 9.36842C8.81754 8.69126 9.75323 8.46912 10.6223 8.48345L11.6431 8.50853L5.64063 17.8383L6.34702 18.2325L12.4235 8.51928L15.1085 8.50853L9.04684 18.4689L11.5728 19.877L11.8761 20.0454C12.0055 20.0956 12.1535 20.0991 12.2829 20.0526L18.9659 16.3013L17.6899 17.0179L14.1543 11.4823ZM14.6721 18.709L12.1202 14.8287L13.6772 12.2706L17.0279 17.3869L14.6721 18.709Z" fill="#2D374B"/>
<path d="M12.1204 14.8323L14.6722 18.7089L17.0281 17.3869L13.6774 12.2705L12.1204 14.8323Z" fill="#28A0F0"/>
<path d="M19.173 15.8319V14.7714L15.5116 9.24658L14.1543 11.4787L17.6862 17.0143L18.9622 16.2977C19.0879 16.1974 19.1619 16.0541 19.173 15.9V15.8319Z" fill="#28A0F0"/>
<path d="M3.83594 16.8315L5.64075 17.8383L11.6432 8.50849L10.6225 8.48341C9.75334 8.47266 8.81765 8.69121 8.38864 9.36838L4.98243 14.4883L3.83594 16.1973V16.8315Z" fill="white"/>
<path d="M15.1086 8.50848L12.4236 8.51923L6.34717 18.2324L8.47004 19.4183L9.04698 18.4689L15.1086 8.50848Z" fill="white"/>
<path d="M20.3048 8.49776C20.2826 7.95316 19.9794 7.45514 19.5023 7.16493L12.8267 3.4459C12.357 3.2166 11.7653 3.2166 11.2956 3.4459C11.2401 3.47098 4.80121 7.08969 4.80121 7.08969C4.71245 7.13269 4.62739 7.17926 4.54603 7.23659C4.12071 7.53038 3.86183 7.98899 3.83594 8.49418V16.1974L4.98243 14.4883L4.97134 8.54434C4.97134 8.52284 4.97504 8.50134 4.97874 8.47985C5.00462 8.34012 5.08599 8.21471 5.20804 8.13231C5.23762 8.11081 11.7837 4.43836 11.8059 4.4312C11.9613 4.35595 12.1536 4.35595 12.3089 4.42761L18.8994 8.10006C19.0548 8.1968 19.1546 8.35803 19.162 8.53717V15.9C19.1546 16.0576 19.0917 16.2009 18.966 16.2977L17.6901 17.0143L17.0317 17.3833L14.6759 18.7054L12.2867 20.0454C12.1573 20.092 12.0057 20.0884 11.8799 20.0382L9.05435 18.4617L8.4774 19.4112L11.0182 20.83C11.1032 20.8766 11.1772 20.916 11.2401 20.9518C11.3362 21.002 11.3991 21.0378 11.4213 21.0486C11.6025 21.1346 11.8614 21.1847 12.0944 21.1847C12.3089 21.1847 12.5197 21.1453 12.7157 21.0701L19.6576 17.1755C20.057 16.8781 20.29 16.4267 20.3122 15.9358V8.49776H20.3048Z" fill="#96BEDC"/>
</g>
</g>
</g>
<defs>
<clipPath id="clip0_2885_30822">
<rect width="24" height="24" fill="white"/>
</clipPath>
<clipPath id="clip1_2885_30822">
<rect width="24" height="24" fill="white"/>
</clipPath>
<clipPath id="clip2_2885_30822">
<rect width="18" height="19" fill="white" transform="translate(3 2.5)"/>
</clipPath>
</defs>
</svg>
