<svg width="19" height="19" viewBox="0 0 19 19" fill="none" xmlns="http://www.w3.org/2000/svg">
<path d="M12.2255 17.75V2.08337C12.2255 1.53109 11.7778 1.08337 11.2255 1.08337H7.61604C7.06376 1.08337 6.61604 1.53109 6.61604 2.08337V17.75M12.2255 17.75L12.224 8.37021C12.224 7.81786 12.6717 7.37005 13.224 7.37005H16.8334C17.3857 7.37005 17.8334 7.81777 17.8334 8.37005V16.75C17.8334 17.3023 17.3857 17.75 16.8334 17.75H12.2255ZM12.2255 17.75H6.61604M6.61604 17.75V13.2483C6.61604 12.696 6.16833 12.2483 5.61604 12.2483H2.16671C1.61442 12.2483 1.16671 12.696 1.16671 13.2483V16.75C1.16671 17.3023 1.61442 17.75 2.16671 17.75H6.61604Z" stroke="#828282" stroke-opacity="0.45" stroke-linecap="round" stroke-linejoin="round"/>
</svg>
