<svg width="22" height="23" viewBox="0 0 22 23" fill="none" xmlns="http://www.w3.org/2000/svg">
<path d="M14.2706 21.5V2.5C14.2706 1.94772 13.8229 1.5 13.2706 1.5H8.5392C7.98692 1.5 7.5392 1.94772 7.5392 2.5V21.5M14.2706 21.5L14.2688 10.0442C14.2687 9.49183 14.7164 9.04402 15.2688 9.04402H20C20.5523 9.04402 21 9.49173 21 10.044V20.5C21 21.0523 20.5523 21.5 20 21.5H14.2706ZM14.2706 21.5H7.5392M7.5392 21.5V15.8979C7.5392 15.3456 7.09149 14.8979 6.5392 14.8979H2C1.44771 14.8979 0.999999 15.3456 0.999999 15.8979V20.5C0.999999 21.0523 1.44771 21.5 2 21.5H7.5392Z" stroke="white" stroke-width="1.5" stroke-linecap="round" stroke-linejoin="round"/>
</svg>
