<svg width="21" height="24" viewBox="0 0 21 24" fill="none" xmlns="http://www.w3.org/2000/svg">
<g clip-path="url(#clip0_2489_14825)">
<path d="M19.7651 21.9042C19.7651 22.6337 19.171 23.2278 18.4415 23.2278H3.06235C2.33288 23.2278 1.73877 22.6337 1.73877 21.9042V2.09556C1.73877 1.36608 2.33288 0.771973 3.06235 0.771973H12.8088C13.1396 0.771973 13.463 0.896059 13.7074 1.12167L19.3402 6.31448C19.6109 6.56642 19.7651 6.91611 19.7651 7.28837V21.9042Z" stroke="white" stroke-width="1.5"/>
<path d="M15.2532 11.4705H6.24947C5.83526 11.4705 5.5 11.8062 5.5 12.2205C5.5 12.6347 5.83526 12.9705 6.24947 12.9705H15.2532C15.6674 12.9705 16 12.6347 16 12.2205C16 11.8062 15.6674 11.4705 15.2532 11.4705Z" fill="white"/>
<path d="M15.2532 15.9705H6.24947C5.83526 15.9705 5.5 16.3062 5.5 16.7205C5.5 17.1347 5.83526 17.4705 6.24947 17.4705H15.2532C15.6674 17.4705 16 17.1347 16 16.7205C16 16.3062 15.6674 15.9705 15.2532 15.9705Z" fill="white"/>
</g>
<defs>
<clipPath id="clip0_2489_14825">
<rect width="21" height="24" fill="white"/>
</clipPath>
</defs>
</svg>
