<svg width="28" height="25" viewBox="0 0 28 25" fill="none" xmlns="http://www.w3.org/2000/svg">
<path d="M19.1074 8.72077C23.4664 8.72077 27.0001 7.10434 27.0001 5.11038C27.0001 3.11642 23.4664 1.5 19.1074 1.5C14.7483 1.5 11.2146 3.11642 11.2146 5.11038C11.2146 7.10434 14.7483 8.72077 19.1074 8.72077Z" stroke="white" stroke-width="1.5" stroke-miterlimit="10"/>
<path d="M13.4104 11.4832C14.7866 12.0217 17.1443 12.5503 19.0972 12.5503C23.4585 12.5503 26.99 10.9346 26.99 8.93996V4.99048" stroke="white" stroke-width="1.5" stroke-miterlimit="10"/>
<path d="M11.2041 5.00073V8.95021C11.2041 9.40899 11.5987 10.1171 11.9428 10.526" stroke="white" stroke-width="1.5" stroke-miterlimit="10"/>
<path d="M16.0308 16.0511C16.9718 16.2306 18.0141 16.3304 19.1069 16.3304C23.4682 16.3304 26.9997 14.7147 26.9997 12.72V8.77051" stroke="white" stroke-width="1.5" stroke-miterlimit="10"/>
<path d="M11.2041 8.78052V10.2566" stroke="white" stroke-width="1.5" stroke-miterlimit="10"/>
<path d="M15.5452 19.7314C16.6178 19.9808 17.8219 20.1204 19.107 20.1204C23.4683 20.1204 26.9998 18.5047 26.9998 16.51V12.5605" stroke="white" stroke-width="1.5" stroke-miterlimit="10"/>
<path d="M13.1877 22.7332C14.6348 23.4812 16.7496 23.95 19.1073 23.95C23.4686 23.95 27.0001 22.3343 27.0001 20.3396V16.3901" stroke="white" stroke-width="1.5" stroke-miterlimit="10"/>
<path d="M8.70468 24C12.6837 24 15.9094 20.8208 15.9094 16.8989C15.9094 12.9771 12.6837 9.79785 8.70468 9.79785C4.72564 9.79785 1.5 12.9771 1.5 16.8989C1.5 20.8208 4.72564 24 8.70468 24Z" stroke="white" stroke-width="1.5" stroke-miterlimit="10"/>
<path d="M8.28227 16.2487C7.91649 16.6093 7.91649 17.1938 8.28227 17.5543C8.64806 17.9148 9.2411 17.9148 9.60688 17.5543C9.97267 17.1938 9.97267 16.6093 9.60688 16.2487C9.2411 15.8882 8.64806 15.8882 8.28227 16.2487Z" fill="white"/>
</svg>
