<svg width="23" height="24" viewBox="0 0 23 24" fill="none" xmlns="http://www.w3.org/2000/svg">
<path d="M9.64706 7.6176C10.2088 5.14209 12.4226 3.29407 15.0681 3.29407C18.1382 3.29407 20.627 5.78284 20.627 8.85289C20.627 11.6967 18.4916 14.0417 15.7368 14.3719M5.94118 5.76466L8.41176 3.29407L5.94118 0.823486M1 6.58819C1 4.7689 2.47483 3.29407 4.29412 3.29407H6.76471M17.0588 18.1176L14.5882 20.5882L17.0588 23.0588M22 17.2941C22 19.1134 20.5252 20.5882 18.7059 20.5882H16.2353M12.1176 16.2647C12.1176 19.3347 9.62888 21.8235 6.55882 21.8235C3.48877 21.8235 1 19.3347 1 16.2647C1 13.1946 3.48877 10.7058 6.55882 10.7058C9.62888 10.7058 12.1176 13.1946 12.1176 16.2647Z" stroke="white" stroke-width="1.5" stroke-linecap="round" stroke-linejoin="round"/>
</svg>
