<svg width="20" height="20" viewBox="0 0 20 20" fill="none" xmlns="http://www.w3.org/2000/svg">
<path d="M8.5 6.5C8.95473 4.49601 10.7469 3 12.8885 3C15.3738 3 17.3885 5.01472 17.3885 7.5C17.3885 9.80209 15.6598 11.7004 13.4298 11.9678M5.5 5L7.5 3L5.5 1M1.5 5.66667C1.5 4.19391 2.69391 3 4.16667 3H6.16667M14.5 15L12.5 17L14.5 19M18.5 14.3333C18.5 15.8061 17.3061 17 15.8333 17H13.8333M10.5 13.5C10.5 15.9853 8.48528 18 6 18C3.51472 18 1.5 15.9853 1.5 13.5C1.5 11.0147 3.51472 9 6 9C8.48528 9 10.5 11.0147 10.5 13.5Z" stroke="#828282" stroke-opacity="0.45" stroke-width="1.5" stroke-linecap="round" stroke-linejoin="round"/>
</svg>
