<svg width="24" height="24" viewBox="0 0 24 24" fill="none" xmlns="http://www.w3.org/2000/svg">
<path d="M12 0C5.37566 0 0 5.37566 0 12C0 18.6243 5.37566 24 12 24C18.6243 24 24 18.6243 24 12C24 5.37566 18.6243 0 12 0ZM19.9365 15.8942C19.9365 15.8942 19.8942 16.0423 19.8307 16.0847C18.7725 16.8466 17.6296 17.4392 16.381 17.8836C16.2116 17.9471 16.0423 17.9894 15.8519 18.0529C15.5556 17.5873 15.2804 17.1217 15.0053 16.6772C15.4709 16.4444 15.9153 16.2328 16.4021 16.0212C16.2963 15.9365 16.2328 15.8942 16.1693 15.8307C16.1058 15.7672 16.0423 15.7672 15.9365 15.8095C14.0741 16.6349 12.127 16.8677 10.1164 16.4656C9.41799 16.3175 8.71958 16.1058 8.06349 15.8095C8.02116 15.8095 7.95767 15.7884 7.91534 15.8095C7.83069 15.873 7.74603 15.9365 7.61905 16.0423C8.08466 16.254 8.5291 16.4868 8.99471 16.6984C8.7619 17.0582 8.55026 17.4392 8.31746 17.7989C8.12698 18.0952 8.12698 18.0952 7.78836 17.9683C6.47619 17.545 5.26984 16.9101 4.16931 16.1058C4.12698 16.0847 4.08466 16.0212 4.08466 15.9788C4.06349 15.7249 4.04233 15.4709 4.02116 15.2169C4.02116 15.1111 4.02116 15.0265 4 14.9206V14.3492C4 14.3492 4 14.2857 4 14.2434C4 13.545 4.08466 12.8466 4.2328 12.1481C4.59259 10.3069 5.33333 8.61376 6.37037 7.06878C6.4127 7.00529 6.45503 6.96296 6.51852 6.9418C7.28042 6.60317 8.04233 6.32804 8.84656 6.13757C9.12169 6.07407 9.37566 6.01058 9.65079 5.94709H9.73545C9.86243 6.20106 9.98942 6.43386 10.0952 6.68783C10.1376 6.79365 10.1799 6.79365 10.2857 6.79365C10.7725 6.75132 11.2593 6.68783 11.746 6.68783C12.4021 6.66667 13.0582 6.70899 13.6931 6.79365C13.7354 6.79365 13.7989 6.79365 13.8201 6.75132C13.9471 6.47619 14.0741 6.22222 14.2011 5.94709H14.2857C14.2857 5.94709 14.328 5.96825 14.3492 5.96825C15.4074 6.15873 16.4021 6.47619 17.3757 6.89947C17.4603 6.9418 17.545 7.00529 17.5873 7.08995C18.8148 8.93122 19.619 10.9418 19.873 13.1429C19.9788 14.0529 19.9788 14.9841 19.8942 15.8942H19.9365Z" fill="white"/>
<path d="M8.38097 11.4073C7.76722 12.0423 7.76722 13.1005 8.38097 13.7565C8.86774 14.2856 9.65081 14.328 10.2011 13.8835C10.6032 13.5449 10.7725 13.1005 10.7937 12.6349C10.7937 12.3386 10.7513 12.0846 10.6244 11.8518C10.1799 10.9417 9.05822 10.7301 8.38097 11.4285V11.4073Z" fill="white"/>
<path d="M13.6931 11.4285C13.3757 11.746 13.2487 12.1481 13.2275 12.529C13.2275 12.91 13.3122 13.2063 13.4603 13.4814C13.926 14.3068 14.9842 14.4549 15.6191 13.7989C16.1905 13.2063 16.2328 12.2116 15.7249 11.5555C15.1958 10.8782 14.2857 10.8359 13.672 11.4497L13.6931 11.4285Z" fill="white"/>
</svg>
