<svg width="32" height="33" viewBox="0 0 32 33" fill="none" xmlns="http://www.w3.org/2000/svg">
<g clip-path="url(#clip0_320_8108)">
<path d="M16 32.5C24.832 32.5 32 25.332 32 16.5C32 7.668 24.832 0.5 16 0.5C7.168 0.5 0 7.668 0 16.5C0 25.332 7.168 32.5 16 32.5Z" fill="#31CB9E"/>
<path d="M14.272 18.004L23.68 23.06C24 23.22 24.032 23.636 23.744 23.828L17.376 28.404C17.088 28.628 16.672 28.468 16.576 28.116L14.272 18.004ZM13.984 5.10802C14.368 4.85202 14.88 5.14002 14.784 5.58802L12.256 16.5L14.752 27.412C14.848 27.828 14.336 28.148 13.952 27.892L7.55204 23.316C7.23204 23.092 7.04004 22.708 7.04004 22.324V10.676C7.04004 10.292 7.23204 9.90802 7.55204 9.68402L13.984 5.10802ZM24.288 11.348C24.608 11.156 25.056 11.38 25.056 11.764V21.236C25.056 21.588 24.64 21.812 24.288 21.652L14.72 16.5L24.288 11.348ZM16.576 4.88402C16.64 4.53202 17.088 4.40402 17.376 4.59602L23.744 9.14002C24.032 9.33202 24 9.74802 23.68 9.90802L14.272 14.996L16.576 4.88402Z" fill="white"/>
</g>
<defs>
<clipPath id="clip0_320_8108">
<rect width="32" height="32" fill="white" transform="translate(0 0.5)"/>
</clipPath>
</defs>
</svg>
