<?xml version="1.0" standalone="no"?>
<!DOCTYPE svg PUBLIC "-//W3C//DTD SVG 20010904//EN"
 "http://www.w3.org/TR/2001/REC-SVG-20010904/DTD/svg10.dtd">
<svg version="1.0" xmlns="http://www.w3.org/2000/svg"
 width="1040.000000pt" height="1040.000000pt" viewBox="0 0 1040.000000 1040.000000"
 preserveAspectRatio="xMidYMid meet">
<metadata>
Created by potrace 1.14, written by Peter Selinger 2001-2017
</metadata>
<g transform="translate(0.000000,1040.000000) scale(0.100000,-0.100000)"
fill="#000000" stroke="none">
<path d="M4747 10057 c-62 -15 -232 -89 -247 -106 -3 -3 -16 -12 -29 -19 -13
-8 -39 -22 -57 -32 -18 -11 -51 -30 -73 -45 -23 -14 -41 -22 -41 -18 0 5 -4 2
-8 -4 -4 -7 -26 -23 -49 -35 -157 -88 -200 -112 -213 -123 -8 -7 -40 -26 -70
-42 -76 -41 -104 -57 -110 -63 -3 -3 -22 -14 -42 -25 -20 -11 -101 -58 -180
-104 -79 -46 -159 -92 -178 -103 -19 -11 -88 -51 -152 -89 -64 -38 -121 -69
-127 -69 -5 0 -11 -4 -13 -8 -1 -4 -54 -37 -116 -73 -62 -35 -125 -72 -140
-81 -15 -9 -38 -23 -52 -30 -93 -51 -366 -214 -368 -220 -2 -5 -7 -6 -12 -3
-5 3 -15 0 -22 -7 -8 -7 -23 -18 -33 -24 -61 -34 -71 -40 -76 -47 -3 -5 -10
-9 -15 -9 -11 0 -142 -76 -165 -95 -9 -7 -19 -10 -22 -6 -4 3 -7 1 -7 -5 0 -7
-4 -12 -9 -12 -5 0 -82 -43 -171 -95 -89 -52 -166 -95 -170 -95 -5 0 -10 -3
-12 -7 -2 -5 -28 -21 -58 -37 -30 -17 -61 -36 -68 -43 -7 -7 -17 -13 -22 -13
-4 0 -38 -18 -74 -40 -36 -22 -70 -40 -76 -40 -5 0 -10 -4 -10 -9 0 -5 -16
-15 -35 -22 -19 -7 -35 -16 -35 -19 0 -4 -18 -15 -40 -25 -22 -10 -40 -22 -40
-27 0 -4 -5 -8 -11 -8 -9 0 -29 -13 -97 -65 -7 -5 -22 -18 -33 -27 -10 -10
-23 -18 -27 -18 -9 0 -222 -205 -222 -214 0 -3 -11 -17 -24 -32 -43 -48 -51
-59 -115 -154 -55 -82 -155 -274 -163 -312 -2 -7 -5 -15 -8 -18 -9 -8 -72
-215 -75 -245 -1 -5 -4 -19 -8 -30 -7 -24 -16 -80 -31 -200 -6 -47 -7 -285 -2
-335 3 -19 7 -57 11 -85 4 -27 8 -61 10 -75 2 -14 8 -45 14 -70 7 -25 14 -56
17 -70 19 -91 129 -363 164 -405 6 -7 7 -15 3 -18 -3 -4 -1 -7 5 -7 7 0 12 -5
12 -10 0 -12 37 -70 95 -150 94 -130 215 -257 325 -340 18 -14 38 -30 45 -36
6 -6 45 -34 87 -61 42 -27 73 -54 70 -59 -6 -9 -94 -62 -235 -143 -23 -13 -58
-33 -79 -45 -20 -11 -83 -48 -140 -81 -56 -32 -106 -64 -110 -70 -4 -5 -8 -6
-8 -1 0 5 -8 2 -17 -6 -10 -8 -43 -28 -73 -44 -30 -16 -57 -31 -60 -34 -9 -10
-131 -80 -139 -80 -5 0 -14 -7 -21 -15 -7 -8 -16 -12 -21 -9 -5 3 -9 1 -9 -3
0 -5 -17 -17 -37 -28 -21 -10 -52 -29 -70 -42 -17 -13 -35 -23 -39 -23 -12 0
-140 -135 -170 -180 -37 -55 -84 -152 -84 -172 0 -8 -3 -18 -7 -22 -4 -3 -8
-12 -9 -19 -1 -7 -5 -25 -9 -42 -4 -16 -8 -75 -10 -130 -6 -202 57 -374 190
-513 27 -29 51 -57 53 -62 2 -6 8 -10 13 -10 5 0 30 -15 56 -33 27 -19 109
-69 183 -112 74 -43 172 -100 218 -127 45 -26 87 -48 92 -48 6 0 10 -4 10 -9
0 -5 8 -11 17 -14 10 -4 36 -18 58 -32 22 -14 54 -32 70 -40 32 -16 46 -24
113 -67 24 -16 45 -28 47 -28 2 0 38 -20 79 -45 42 -25 81 -45 86 -45 6 0 10
-4 10 -9 0 -5 8 -11 18 -14 9 -4 37 -18 62 -33 25 -14 83 -49 130 -77 47 -27
101 -59 120 -70 19 -11 99 -57 178 -103 79 -46 147 -84 152 -84 6 0 10 -4 10
-9 0 -5 8 -12 18 -15 25 -9 72 -35 112 -61 19 -13 54 -33 77 -46 23 -13 95
-55 160 -93 65 -38 141 -82 168 -98 28 -16 73 -42 100 -58 28 -17 69 -40 93
-52 23 -12 42 -25 42 -30 0 -4 9 -8 19 -8 11 0 21 -4 23 -8 2 -4 37 -27 78
-51 156 -90 183 -106 248 -142 20 -12 49 -30 64 -40 14 -11 29 -19 32 -19 5 0
127 -71 186 -109 14 -8 27 -16 30 -16 3 0 59 -32 125 -71 66 -39 143 -84 170
-99 28 -16 53 -34 57 -40 4 -5 8 -6 8 -1 0 5 8 2 17 -6 10 -8 64 -41 121 -73
56 -31 105 -61 108 -66 3 -5 10 -7 15 -4 5 4 9 1 9 -4 0 -6 4 -11 10 -11 5 0
38 -17 72 -38 35 -21 70 -41 78 -45 8 -4 27 -15 42 -25 50 -32 121 -72 129
-72 5 0 9 -4 9 -8 0 -5 16 -14 35 -22 19 -8 35 -17 35 -22 0 -4 4 -8 8 -8 10
0 211 -114 229 -130 7 -5 14 -10 17 -10 10 0 181 -102 187 -112 3 -5 9 -9 13
-8 4 1 54 -26 111 -59 57 -34 108 -61 114 -61 6 0 11 -5 11 -11 0 -5 5 -7 10
-4 6 3 10 1 10 -4 0 -6 3 -10 8 -9 4 0 16 -2 27 -6 11 -4 33 -13 49 -19 17 -6
37 -12 45 -13 9 -2 36 -7 60 -12 57 -13 255 -6 301 11 8 3 44 15 80 28 36 12
72 28 80 34 8 6 47 29 85 51 39 21 78 43 87 49 9 5 29 17 45 26 15 9 57 33 93
54 36 20 79 46 97 56 17 10 49 29 70 42 21 13 45 27 53 30 8 4 29 16 45 27 17
10 49 29 73 41 23 13 42 26 42 31 0 4 9 8 19 8 11 0 23 5 26 11 4 5 17 14 28
19 12 6 40 21 62 35 22 14 48 28 58 31 9 4 17 9 17 13 0 4 16 13 35 20 19 7
35 16 35 21 0 5 9 12 20 15 11 4 77 40 146 81 69 41 130 74 135 74 5 0 9 3 9
8 0 4 15 13 33 21 17 8 34 17 37 21 3 3 28 19 55 34 28 16 70 40 95 54 25 13
57 34 73 44 15 11 27 16 27 11 0 -4 4 -3 8 3 8 12 150 94 163 94 5 0 9 4 9 10
0 5 11 12 25 16 14 3 25 10 25 15 0 5 4 9 9 9 4 0 60 30 122 67 63 36 154 89
202 117 49 28 105 61 125 73 20 13 45 25 55 29 9 3 17 9 17 13 0 4 20 15 45
26 25 11 45 23 45 28 0 4 4 7 10 7 5 0 39 18 75 40 36 22 70 40 75 40 6 0 10
5 10 10 0 6 4 10 8 10 7 0 116 60 182 100 64 39 235 139 280 163 30 16 62 35
70 42 8 7 31 20 50 29 36 17 193 126 245 171 16 14 33 25 38 25 4 0 5 4 2 10
-3 6 -2 10 4 10 9 0 125 113 174 170 63 72 172 234 221 330 36 69 111 254 122
300 11 50 11 49 14 58 2 4 4 12 5 17 2 6 4 12 5 15 5 14 11 47 12 68 0 12 4
22 7 22 4 0 8 17 9 39 2 21 5 49 7 62 26 129 20 409 -10 559 -3 14 -8 41 -11
60 -3 19 -8 42 -11 50 -3 8 -8 24 -10 35 -9 50 -79 238 -118 315 -161 326
-345 530 -667 740 -20 14 -34 28 -31 33 3 5 7 6 10 4 4 -4 92 45 203 113 8 5
34 19 58 31 23 13 42 26 42 31 0 4 5 8 11 8 6 0 37 15 68 34 61 37 106 63 161
92 19 11 37 22 40 25 3 4 28 18 55 33 28 14 57 31 65 36 58 37 152 90 160 90
6 0 10 5 10 10 0 6 4 10 10 10 5 0 49 24 97 52 98 59 217 171 260 246 15 26
32 50 38 54 5 4 7 8 2 8 -4 0 1 17 12 38 52 103 74 318 44 440 -21 86 -21 87
-23 90 -2 1 -3 5 -5 10 -1 4 -7 20 -13 35 -7 16 -12 33 -12 38 0 5 -4 9 -8 9
-5 0 -14 16 -22 35 -8 19 -17 35 -22 35 -4 0 -8 5 -8 10 0 6 -15 28 -34 48
-19 20 -43 47 -54 60 -11 12 -23 22 -28 22 -5 0 -15 9 -22 20 -7 11 -19 20
-27 20 -8 0 -15 4 -15 8 0 5 -17 17 -37 28 -21 10 -40 21 -43 24 -10 11 -132
80 -140 80 -5 0 -10 3 -12 8 -1 4 -19 16 -38 26 -37 20 -76 43 -256 148 -61
35 -117 68 -125 72 -8 4 -23 12 -34 19 -11 7 -58 35 -105 62 -47 28 -94 55
-105 62 -11 6 -39 21 -62 32 -23 11 -43 26 -45 31 -2 6 -10 12 -18 13 -8 2
-26 10 -40 19 -14 8 -54 32 -90 53 -65 38 -76 44 -180 104 -30 17 -62 36 -70
41 -8 6 -26 16 -40 22 -14 7 -27 15 -30 19 -3 3 -67 41 -144 85 -76 43 -155
89 -175 101 -20 13 -43 26 -51 30 -8 3 -39 21 -68 40 -29 18 -54 33 -56 33 -3
0 -50 27 -106 60 -56 33 -106 60 -111 60 -5 0 -9 5 -9 10 0 6 -5 10 -10 10 -6
0 -27 11 -48 23 -20 13 -58 35 -83 49 -83 46 -94 53 -99 59 -3 3 -18 12 -35
21 -29 14 -364 207 -395 227 -55 36 -126 75 -132 73 -5 -1 -8 3 -8 10 0 6 -3
9 -6 5 -3 -3 -15 3 -27 14 -11 10 -27 19 -34 19 -7 0 -13 5 -13 11 0 5 -4 7
-10 4 -5 -3 -10 -1 -10 4 0 6 -5 11 -11 11 -6 0 -44 20 -85 45 -40 25 -78 45
-83 45 -5 0 -11 3 -13 8 -4 9 -57 41 -80 49 -10 3 -18 9 -18 14 0 5 -5 9 -12
9 -6 0 -50 23 -97 51 -47 29 -99 60 -116 69 -16 9 -65 38 -107 63 -43 25 -78
43 -78 39 0 -4 -4 -2 -8 4 -4 7 -34 27 -67 44 -33 18 -67 38 -75 44 -17 13
-48 30 -105 61 -22 12 -66 38 -97 58 -31 21 -59 37 -62 37 -3 0 -51 27 -107
60 -55 33 -105 60 -110 60 -5 0 -9 4 -9 9 0 5 -8 11 -17 14 -19 6 -50 24 -163
91 -36 21 -85 50 -110 64 -25 14 -48 30 -52 36 -4 6 -8 7 -8 3 0 -5 -13 1 -29
12 -16 12 -31 21 -34 21 -3 0 -18 5 -34 12 -15 6 -30 12 -33 13 -3 1 -12 5
-20 8 -82 37 -288 44 -403 14z"/>
</g>
</svg>
