<svg width="21" height="21" viewBox="0 0 21 21" fill="none" xmlns="http://www.w3.org/2000/svg">
<g clip-path="url(#clip0_174_4339)">
<path d="M6.49712 18.6256C14.0443 18.6256 18.1723 12.3728 18.1723 6.95035C18.1723 6.77275 18.1723 6.59595 18.1603 6.41995C18.9634 5.83908 19.6566 5.11986 20.2075 4.29595C19.4587 4.62795 18.6642 4.84558 17.8507 4.94155C18.7074 4.42879 19.3485 3.6222 19.6547 2.67195C18.8493 3.14996 17.968 3.48681 17.0491 3.66795C16.4304 3.0101 15.6122 2.57449 14.721 2.42852C13.8298 2.28256 12.9154 2.43438 12.1192 2.8605C11.3229 3.28661 10.6894 3.96326 10.3165 4.78574C9.94357 5.60822 9.85214 6.53067 10.0563 7.41035C8.42493 7.32852 6.82898 6.90455 5.37207 6.16596C3.91515 5.42737 2.62982 4.39067 1.59952 3.12315C1.07479 4.02648 0.91408 5.09584 1.1501 6.1135C1.38613 7.13117 2.00114 8.02061 2.86992 8.60075C2.21688 8.58162 1.57806 8.40545 1.00752 8.08715V8.13915C1.00778 9.08653 1.33573 10.0046 1.93575 10.7378C2.53576 11.4709 3.3709 11.974 4.29952 12.1616C3.69542 12.3263 3.06158 12.3504 2.44672 12.232C2.70903 13.0472 3.21954 13.7602 3.90689 14.2711C4.59423 14.782 5.42404 15.0654 6.28032 15.0816C5.42955 15.7503 4.45528 16.2447 3.41325 16.5366C2.37121 16.8284 1.28187 16.9119 0.20752 16.7824C2.08405 17.9865 4.26746 18.6253 6.49712 18.6224" fill="#A3AAB4"/>
</g>
<defs>
<clipPath id="clip0_174_4339">
<rect width="20" height="20" fill="white" transform="translate(0.20752 0.5)"/>
</clipPath>
</defs>
</svg>
