<svg width="21" height="21" viewBox="0 0 21 21" fill="none" xmlns="http://www.w3.org/2000/svg">
<g clip-path="url(#clip0_174_4341)">
<path d="M10.2075 20.5C15.7304 20.5 20.2075 16.0228 20.2075 10.5C20.2075 4.97715 15.7304 0.5 10.2075 0.5C4.68467 0.5 0.20752 4.97715 0.20752 10.5C0.20752 16.0228 4.68467 20.5 10.2075 20.5Z" fill="#A3AAB4"/>
<path fill-rule="evenodd" clip-rule="evenodd" d="M4.73412 10.3945C7.64932 9.12435 9.59325 8.28702 10.5659 7.88246C13.343 6.72737 13.9201 6.52672 14.2962 6.52009C14.3789 6.51863 14.5639 6.53913 14.6837 6.63635C14.7848 6.71844 14.8127 6.82934 14.826 6.90717C14.8393 6.985 14.8559 7.1623 14.8427 7.30083C14.6922 8.88207 14.0411 12.7193 13.7098 14.4903C13.5696 15.2397 13.2936 15.491 13.0264 15.5155C12.4456 15.569 12.0047 15.1318 11.4422 14.7631C10.5621 14.1861 10.0649 13.827 9.21055 13.264C8.22324 12.6134 8.86327 12.2558 9.42594 11.6714C9.57319 11.5184 12.1319 9.19115 12.1814 8.98002C12.1876 8.95362 12.1933 8.8552 12.1348 8.80322C12.0764 8.75125 11.9901 8.76903 11.9278 8.78316C11.8395 8.80319 10.4335 9.73252 7.70974 11.5711C7.31065 11.8452 6.94916 11.9787 6.62528 11.9717C6.26823 11.964 5.5814 11.7698 5.07082 11.6039C4.44457 11.4003 3.94684 11.2927 3.99018 10.9469C4.01275 10.7669 4.26073 10.5827 4.73412 10.3945Z" fill="#001330"/>
</g>
<defs>
<clipPath id="clip0_174_4341">
<rect width="20" height="20" fill="white" transform="translate(0.20752 0.5)"/>
</clipPath>
</defs>
</svg>
